<svg xmlns="http://www.w3.org/2000/svg" viewBox="0 0 1018.35 719.85"><defs><style>.cls-1{opacity:0.4;}.cls-2{fill:#36d2eb;}.cls-19,.cls-3,.cls-30,.cls-33{fill:none;}.cls-4{fill:#ec3640;}.cls-5{fill:#f7ffeb;}.cls-24,.cls-49,.cls-6{fill:#fff;}.cls-7{fill:#f6c200;}.cls-8{fill:#feefeb;}.cls-9{fill:#e2d6d9;}.cls-10{fill:#efedaf;}.cls-11{fill:#eacd96;}.cls-12{fill:#bfeaef;}.cls-13{fill:#45434c;}.cls-14{fill:#2bc8d8;}.cls-15{fill:#ca7731;}.cls-16{fill:#ede7ba;}.cls-17{fill:#edefcc;}.cls-18{fill:#a7e7ce;}.cls-19{stroke:#000;}.cls-19,.cls-30,.cls-33{stroke-linecap:round;stroke-miterlimit:10;}.cls-19,.cls-33{stroke-width:3px;}.cls-20{fill:#e8e8e3;}.cls-21{fill:#e7f9ea;}.cls-22{fill:#7a9cdb;}.cls-23{fill:#a5e31f;}.cls-24,.cls-39{font-size:48px;}.cls-24,.cls-49{font-family:BloggerSans-Medium, BloggerSans Medium;font-weight:500;}.cls-25{letter-spacing:-0.03em;}.cls-26{font-size:16px;fill:#f5ffff;font-family:Roboto-Regular, Roboto Regular;}.cls-27{fill:#f2519e;}.cls-28{fill:#add0d8;}.cls-29{fill:#9cce13;}.cls-30{stroke:#827f74;stroke-width:11px;}.cls-31{fill:#939186;}.cls-32{fill:#9b9993;}.cls-33{stroke:#595b54;}.cls-34{fill:#f49d89;}.cls-35{fill:#bb5451;}.cls-36{fill:#db5451;}.cls-37{fill:#c2b5b0;}.cls-38{fill:#e2d1ce;}.cls-39{fill:#231f20;font-family:BloggerSans-Bold, BloggerSans Bold;font-weight:700;letter-spacing:0.1em;}.cls-40{letter-spacing:0.02em;}.cls-41{letter-spacing:0.1em;}.cls-42{letter-spacing:0.06em;}.cls-43{letter-spacing:0.12em;}.cls-44{fill:#d6e8f6;}.cls-45{fill:#e9f9e5;}.cls-46{fill:#ef5e65;}.cls-47{fill:#c2bdc7;}.cls-48{fill:#88b50d;}.cls-49{font-size:19.38px;letter-spacing:0.1em;}.cls-50{letter-spacing:0.01em;}.cls-51{letter-spacing:-0.01em;}.cls-52{letter-spacing:0.01em;}.cls-53{letter-spacing:-0.01em;}.cls-54{fill:#12a8d6;}.cls-55{font-size:12px;font-family:MyriadPro-Regular, Myriad Pro;}.cls-56{letter-spacing:-0.01em;}.cls-57{letter-spacing:-0.01em;}</style></defs><title>bannerIA01</title><g id="DESIGNED_BY_FREEPIK" data-name="DESIGNED BY FREEPIK"><g class="cls-1"><path d="M288.49,774.29V774a6.52,6.52,0,0,1-1,1,3.84,3.84,0,0,1-1.1.57,4.17,4.17,0,0,1-1.3.2,3.72,3.72,0,0,1-1.72-.4,4,4,0,0,1-1.37-1.12,5.09,5.09,0,0,1-.88-1.72,7.33,7.33,0,0,1-.3-2.14A5.59,5.59,0,0,1,282,766.6a4,4,0,0,1,3.12-1.36,4.13,4.13,0,0,1,1.89.39,5.25,5.25,0,0,1,1.5,1.18V763a1.93,1.93,0,0,1,.32-1.2,1.06,1.06,0,0,1,.91-.41,1.11,1.11,0,0,1,.9.37,1.63,1.63,0,0,1,.32,1.11v11.44a1.59,1.59,0,0,1-.34,1.11,1.17,1.17,0,0,1-.88.37,1.12,1.12,0,0,1-.88-.39A1.57,1.57,0,0,1,288.49,774.29Zm-5.1-3.81a4.37,4.37,0,0,0,.33,1.79,2.49,2.49,0,0,0,.9,1.12,2.2,2.2,0,0,0,1.24.37,2.36,2.36,0,0,0,1.25-.35,2.46,2.46,0,0,0,.9-1.09,4.38,4.38,0,0,0,.34-1.84,4.19,4.19,0,0,0-.34-1.78,2.72,2.72,0,0,0-.91-1.15,2.18,2.18,0,0,0-1.26-.39,2.12,2.12,0,0,0-1.27.41,2.59,2.59,0,0,0-.87,1.15A4.57,4.57,0,0,0,283.39,770.48Z" transform="translate(-39.59 -59.77)"/><path d="M299.93,771.13h-5.08a3.52,3.52,0,0,0,.36,1.56,2.48,2.48,0,0,0,.92,1,2.44,2.44,0,0,0,1.27.34,3.24,3.24,0,0,0,.85-.11,3,3,0,0,0,.75-.34,5.71,5.71,0,0,0,.66-.5l.79-.72a.81.81,0,0,1,.57-.17.93.93,0,0,1,.64.21.79.79,0,0,1,.25.62,1.68,1.68,0,0,1-.27.82,3.48,3.48,0,0,1-.83.91,5.09,5.09,0,0,1-1.4.71,6,6,0,0,1-1.93.29,5.19,5.19,0,0,1-3.89-1.43,5.32,5.32,0,0,1-1.38-3.86,6.34,6.34,0,0,1,.34-2.13,4.81,4.81,0,0,1,1-1.69,4.35,4.35,0,0,1,1.62-1.08,5.81,5.81,0,0,1,2.13-.37,5,5,0,0,1,2.6.64,4.16,4.16,0,0,1,1.63,1.65,4.38,4.38,0,0,1,.54,2.07c0,.66-.18,1.08-.56,1.27A3.38,3.38,0,0,1,299.93,771.13Zm-5.08-1.47h4.71a3.21,3.21,0,0,0-.72-2,2.15,2.15,0,0,0-1.64-.66,2,2,0,0,0-1.59.67A3.39,3.39,0,0,0,294.85,769.66Z" transform="translate(-39.59 -59.77)"/><path d="M311.74,772.38a3.13,3.13,0,0,1-.52,1.83,3.16,3.16,0,0,1-1.55,1.16,6.68,6.68,0,0,1-2.48.4,5.94,5.94,0,0,1-2.39-.43,3.43,3.43,0,0,1-1.47-1.07,2.13,2.13,0,0,1-.48-1.29,1,1,0,0,1,.31-.73,1,1,0,0,1,.76-.3.9.9,0,0,1,.63.2,2,2,0,0,1,.42.56,2.72,2.72,0,0,0,.95,1,2.87,2.87,0,0,0,1.52.35,2.22,2.22,0,0,0,1.28-.35,1,1,0,0,0,.49-.79,1.08,1.08,0,0,0-.51-1,6.5,6.5,0,0,0-1.71-.6,13.39,13.39,0,0,1-2.18-.7,3.47,3.47,0,0,1-1.34-1,2.19,2.19,0,0,1-.51-1.47,2.64,2.64,0,0,1,.47-1.48,3.18,3.18,0,0,1,1.37-1.1,5.22,5.22,0,0,1,2.19-.42,7.14,7.14,0,0,1,1.81.21,4.62,4.62,0,0,1,1.34.56,2.94,2.94,0,0,1,.82.78,1.61,1.61,0,0,1,.28.84,1,1,0,0,1-.3.73,1.18,1.18,0,0,1-.85.29,1.05,1.05,0,0,1-.68-.23,4.47,4.47,0,0,1-.64-.69,2.45,2.45,0,0,0-.69-.6,2.55,2.55,0,0,0-2.26.07.86.86,0,0,0-.46.74.79.79,0,0,0,.34.67,2.72,2.72,0,0,0,.92.43c.39.12.92.26,1.6.42a8.89,8.89,0,0,1,2,.7,3.45,3.45,0,0,1,1.16,1A2.15,2.15,0,0,1,311.74,772.38Z" transform="translate(-39.59 -59.77)"/><path d="M314.39,764a1.39,1.39,0,0,1-.93-.33,1.21,1.21,0,0,1-.38-.94,1.18,1.18,0,0,1,.39-.91,1.33,1.33,0,0,1,.92-.36,1.37,1.37,0,0,1,.89.32,1.17,1.17,0,0,1,.39,1,1.19,1.19,0,0,1-.38.93A1.28,1.28,0,0,1,314.39,764Zm1.28,2.68v7.49a1.67,1.67,0,0,1-.37,1.18,1.25,1.25,0,0,1-.94.4,1.16,1.16,0,0,1-.92-.41,1.71,1.71,0,0,1-.36-1.17v-7.42a1.66,1.66,0,0,1,.36-1.16,1.17,1.17,0,0,1,.92-.39,1.24,1.24,0,0,1,.94.39A1.5,1.5,0,0,1,315.67,766.7Z" transform="translate(-39.59 -59.77)"/><path d="M327,767.13v7.53a7.64,7.64,0,0,1-.28,2.22,3.51,3.51,0,0,1-.88,1.54,3.73,3.73,0,0,1-1.59.9,8.49,8.49,0,0,1-2.44.29,7.12,7.12,0,0,1-2.4-.37,4.09,4.09,0,0,1-1.62-1,1.75,1.75,0,0,1-.57-1.22,1,1,0,0,1,.32-.77,1.12,1.12,0,0,1,.78-.3,1.27,1.27,0,0,1,1,.5l.43.52a3,3,0,0,0,.49.45,2,2,0,0,0,.65.27,3.91,3.91,0,0,0,.88.09,3.48,3.48,0,0,0,1.56-.28,1.62,1.62,0,0,0,.78-.79,3,3,0,0,0,.26-1.07c0-.39,0-1,.06-1.85a4.17,4.17,0,0,1-1.39,1.27,3.76,3.76,0,0,1-1.86.44,4,4,0,0,1-2.28-.66,4.36,4.36,0,0,1-1.49-1.87,6.76,6.76,0,0,1-.52-2.76,6.64,6.64,0,0,1,.31-2.11,4.57,4.57,0,0,1,.91-1.59,3.91,3.91,0,0,1,1.36-1,4.25,4.25,0,0,1,1.69-.33,4,4,0,0,1,1.91.43,4.58,4.58,0,0,1,1.5,1.32v-.35a1.54,1.54,0,0,1,.33-1,1.13,1.13,0,0,1,.86-.37,1,1,0,0,1,1,.49A3.17,3.17,0,0,1,327,767.13Zm-7.51,3.28a3.56,3.56,0,0,0,.69,2.38,2.21,2.21,0,0,0,1.78.81,2.34,2.34,0,0,0,1.22-.34,2.59,2.59,0,0,0,.93-1,3.67,3.67,0,0,0,.36-1.69,3.9,3.9,0,0,0-.69-2.47,2.24,2.24,0,0,0-1.84-.89,2.16,2.16,0,0,0-1.78.85A3.75,3.75,0,0,0,319.52,770.41Z" transform="translate(-39.59 -59.77)"/><path d="M331.15,766.66V767a4.58,4.58,0,0,1,1.5-1.32,4,4,0,0,1,1.86-.43,3.72,3.72,0,0,1,1.84.45,2.86,2.86,0,0,1,1.2,1.26,3,3,0,0,1,.34,1,10.89,10.89,0,0,1,.07,1.41v4.82a1.77,1.77,0,0,1-.35,1.18,1.22,1.22,0,0,1-.93.4,1.2,1.2,0,0,1-.94-.41,1.71,1.71,0,0,1-.36-1.17v-4.32a4.25,4.25,0,0,0-.36-2,1.46,1.46,0,0,0-1.42-.68,2.13,2.13,0,0,0-1.26.41,2.44,2.44,0,0,0-.84,1.14,8.32,8.32,0,0,0-.19,2.16v3.25a1.7,1.7,0,0,1-.36,1.18,1.22,1.22,0,0,1-.95.4,1.19,1.19,0,0,1-.92-.41,1.71,1.71,0,0,1-.36-1.17V766.7a1.65,1.65,0,0,1,.32-1.11,1.15,1.15,0,0,1,.89-.37,1.17,1.17,0,0,1,.61.17,1.1,1.1,0,0,1,.45.48A1.74,1.74,0,0,1,331.15,766.66Z" transform="translate(-39.59 -59.77)"/><path d="M346.93,771.13h-5.07a3.38,3.38,0,0,0,.35,1.56,2.48,2.48,0,0,0,.92,1,2.42,2.42,0,0,0,1.27.34,3.24,3.24,0,0,0,.85-.11,3,3,0,0,0,.75-.34,5.71,5.71,0,0,0,.66-.5l.79-.72a.81.81,0,0,1,.57-.17.93.93,0,0,1,.64.21.79.79,0,0,1,.25.62,1.68,1.68,0,0,1-.27.82,3.21,3.21,0,0,1-.84.91,4.89,4.89,0,0,1-1.39.71,6,6,0,0,1-1.93.29,5.19,5.19,0,0,1-3.89-1.43,5.32,5.32,0,0,1-1.38-3.86,6.34,6.34,0,0,1,.34-2.13,4.66,4.66,0,0,1,1-1.69,4.35,4.35,0,0,1,1.62-1.08,5.81,5.81,0,0,1,2.13-.37,5,5,0,0,1,2.6.64,4.16,4.16,0,0,1,1.63,1.65,4.38,4.38,0,0,1,.54,2.07c0,.66-.18,1.08-.56,1.27A3.38,3.38,0,0,1,346.93,771.13Zm-5.07-1.47h4.7a3.21,3.21,0,0,0-.72-2,2.15,2.15,0,0,0-1.64-.66,2,2,0,0,0-1.59.67A3.26,3.26,0,0,0,341.86,769.66Z" transform="translate(-39.59 -59.77)"/><path d="M357.5,774.29V774a7,7,0,0,1-1,1,3.89,3.89,0,0,1-1.11.57,4.06,4.06,0,0,1-1.29.2,3.76,3.76,0,0,1-1.73-.4,4.18,4.18,0,0,1-1.37-1.12,5.28,5.28,0,0,1-.88-1.72,7.33,7.33,0,0,1-.3-2.14A5.59,5.59,0,0,1,351,766.6a4,4,0,0,1,3.13-1.36,4.19,4.19,0,0,1,1.89.39,5.25,5.25,0,0,1,1.5,1.18V763a1.87,1.87,0,0,1,.32-1.2,1.05,1.05,0,0,1,.9-.41,1.13,1.13,0,0,1,.91.37,1.69,1.69,0,0,1,.32,1.11v11.44a1.64,1.64,0,0,1-.34,1.11,1.19,1.19,0,0,1-.89.37,1.15,1.15,0,0,1-.88-.39A1.57,1.57,0,0,1,357.5,774.29Zm-5.1-3.81a4.37,4.37,0,0,0,.32,1.79,2.49,2.49,0,0,0,.9,1.12,2.23,2.23,0,0,0,1.25.37,2.32,2.32,0,0,0,1.24-.35,2.54,2.54,0,0,0,.91-1.09,4.55,4.55,0,0,0,.33-1.84,4.35,4.35,0,0,0-.33-1.78,2.8,2.8,0,0,0-.91-1.15,2.23,2.23,0,0,0-1.26-.39,2.15,2.15,0,0,0-1.28.41,2.5,2.5,0,0,0-.86,1.15A4.57,4.57,0,0,0,352.4,770.48Z" transform="translate(-39.59 -59.77)"/><path d="M368.09,762.85v4a6,6,0,0,1,1.5-1.16,3.93,3.93,0,0,1,1.88-.41,4.14,4.14,0,0,1,2.26.62,4.05,4.05,0,0,1,1.51,1.77,6.53,6.53,0,0,1,.54,2.76,7.32,7.32,0,0,1-.3,2.16,5.11,5.11,0,0,1-.87,1.71,3.9,3.9,0,0,1-1.38,1.11,4,4,0,0,1-1.79.4,4.54,4.54,0,0,1-1.13-.14,3.39,3.39,0,0,1-.9-.38,4,4,0,0,1-.63-.48c-.17-.16-.4-.41-.69-.74v.26a1.53,1.53,0,0,1-.35,1.1,1.16,1.16,0,0,1-.89.38,1.11,1.11,0,0,1-.88-.38,1.62,1.62,0,0,1-.33-1.1V763a1.92,1.92,0,0,1,.32-1.19,1.06,1.06,0,0,1,.89-.4,1.14,1.14,0,0,1,.92.38A1.66,1.66,0,0,1,368.09,762.85Zm.13,7.7a3.51,3.51,0,0,0,.71,2.38,2.29,2.29,0,0,0,1.85.83,2.13,2.13,0,0,0,1.69-.85,3.69,3.69,0,0,0,.71-2.43,4.68,4.68,0,0,0-.3-1.77,2.55,2.55,0,0,0-.83-1.14,2.1,2.1,0,0,0-1.27-.41,2.27,2.27,0,0,0-1.32.41,2.63,2.63,0,0,0-.91,1.16A4.59,4.59,0,0,0,368.22,770.55Z" transform="translate(-39.59 -59.77)"/><path d="M379.14,776.09l.24-.58-3.19-8a2.92,2.92,0,0,1-.3-1,1.23,1.23,0,0,1,.17-.62,1.27,1.27,0,0,1,.47-.45,1.21,1.21,0,0,1,.63-.18,1,1,0,0,1,.84.36,3.23,3.23,0,0,1,.5,1l2.2,6.38,2.08-5.93a10,10,0,0,1,.44-1.13,1.29,1.29,0,0,1,.43-.55,1.11,1.11,0,0,1,.63-.15,1.13,1.13,0,0,1,.56.16,1.21,1.21,0,0,1,.42.42,1.15,1.15,0,0,1,.15.56c0,.12-.07.29-.12.52s-.13.44-.21.67l-3.38,8.85a11.18,11.18,0,0,1-.86,1.84,2.87,2.87,0,0,1-1.11,1,4,4,0,0,1-1.85.35,4.63,4.63,0,0,1-1.71-.24.91.91,0,0,1-.57-.91.87.87,0,0,1,.27-.68,1.18,1.18,0,0,1,.8-.25,1.4,1.4,0,0,1,.41.06,1.84,1.84,0,0,0,.43.06,1.52,1.52,0,0,0,.7-.14,1.19,1.19,0,0,0,.46-.46A6.62,6.62,0,0,0,379.14,776.09Z" transform="translate(-39.59 -59.77)"/><path d="M416.7,765.45h.62v-.78a5,5,0,0,1,.31-1.94,1.91,1.91,0,0,1,1.05-1,5,5,0,0,1,2-.33c1.52,0,2.27.37,2.27,1.12a.87.87,0,0,1-.24.61.72.72,0,0,1-.55.26,4,4,0,0,1-.53-.06,3.89,3.89,0,0,0-.62-.06.91.91,0,0,0-.91.42,2.84,2.84,0,0,0-.19,1.18v.62h.63c1,0,1.48.3,1.48.89,0,.42-.13.7-.39.81a2.89,2.89,0,0,1-1.09.17h-.63v6.87a1.71,1.71,0,0,1-.37,1.17,1.23,1.23,0,0,1-.95.41,1.18,1.18,0,0,1-.91-.41,1.66,1.66,0,0,1-.37-1.17v-6.87h-.71a1.36,1.36,0,0,1-.9-.26.86.86,0,0,1-.31-.68c0-.62.43-.93,1.3-.93" transform="translate(-39.59 -59.77)"/><path d="M425.19,772v2.17a1.7,1.7,0,0,1-.37,1.18,1.22,1.22,0,0,1-.94.4,1.18,1.18,0,0,1-.92-.4,1.72,1.72,0,0,1-.37-1.18V767c0-1.17.42-1.75,1.27-1.75a1,1,0,0,1,.93.41,2.34,2.34,0,0,1,.32,1.21,4.31,4.31,0,0,1,.94-1.21,2,2,0,0,1,1.31-.41,3.25,3.25,0,0,1,1.59.41,1.22,1.22,0,0,1,.77,1.08,1,1,0,0,1-.33.78,1,1,0,0,1-.7.31,3.46,3.46,0,0,1-.69-.17,3.19,3.19,0,0,0-1-.18,1.4,1.4,0,0,0-.93.3,2,2,0,0,0-.56.89,6.91,6.91,0,0,0-.28,1.4c-.05.54-.07,1.2-.07,2" transform="translate(-39.59 -59.77)"/><path d="M437.11,771.13H432a3.51,3.51,0,0,0,.35,1.56,2.63,2.63,0,0,0,.93,1,2.48,2.48,0,0,0,1.27.33,2.87,2.87,0,0,0,.85-.11,2.34,2.34,0,0,0,.74-.34,4.67,4.67,0,0,0,.67-.5l.79-.71a.81.81,0,0,1,.57-.18,1,1,0,0,1,.64.22.77.77,0,0,1,.25.62,1.68,1.68,0,0,1-.27.82,3.35,3.35,0,0,1-.84.91,5,5,0,0,1-1.39.71,6,6,0,0,1-1.94.29,5.15,5.15,0,0,1-3.88-1.43,5.29,5.29,0,0,1-1.39-3.87,6.43,6.43,0,0,1,.34-2.13,4.77,4.77,0,0,1,1-1.69,4.27,4.27,0,0,1,1.62-1.08,5.93,5.93,0,0,1,2.12-.37,5,5,0,0,1,2.61.65,4.17,4.17,0,0,1,1.63,1.65,4.38,4.38,0,0,1,.54,2.07,1.31,1.31,0,0,1-.56,1.27,3.53,3.53,0,0,1-1.58.29M432,769.66h4.7a3.15,3.15,0,0,0-.71-2,2.15,2.15,0,0,0-1.64-.66,2.08,2.08,0,0,0-1.6.67,3.36,3.36,0,0,0-.75,2" transform="translate(-39.59 -59.77)"/><path d="M447.9,771.13h-5.07a3.38,3.38,0,0,0,.35,1.56,2.61,2.61,0,0,0,.92,1,2.54,2.54,0,0,0,1.28.33,2.8,2.8,0,0,0,.84-.11,2.39,2.39,0,0,0,.75-.34,4.09,4.09,0,0,0,.66-.5c.2-.17.47-.41.79-.71a.85.85,0,0,1,.57-.18,1,1,0,0,1,.65.22.8.8,0,0,1,.24.62,1.68,1.68,0,0,1-.27.82,3.3,3.3,0,0,1-.83.91,5,5,0,0,1-1.4.71,6,6,0,0,1-1.93.29,5.19,5.19,0,0,1-3.89-1.43,5.33,5.33,0,0,1-1.39-3.87,6.43,6.43,0,0,1,.35-2.13,4.77,4.77,0,0,1,1-1.69,4.24,4.24,0,0,1,1.61-1.08,6,6,0,0,1,2.13-.37,5,5,0,0,1,2.61.65,4.08,4.08,0,0,1,1.62,1.65,4.39,4.39,0,0,1,.55,2.07,1.31,1.31,0,0,1-.56,1.27,3.56,3.56,0,0,1-1.58.29m-5.07-1.47h4.7a3.21,3.21,0,0,0-.72-2,2.15,2.15,0,0,0-1.64-.66,2.08,2.08,0,0,0-1.59.67,3.3,3.3,0,0,0-.75,2" transform="translate(-39.59 -59.77)"/><path d="M453.58,766.68V767a5.17,5.17,0,0,1,1.53-1.33,3.66,3.66,0,0,1,1.78-.42,4.15,4.15,0,0,1,3.79,2.42,6.32,6.32,0,0,1,.59,2.81,6.78,6.78,0,0,1-.34,2.21,4.87,4.87,0,0,1-.93,1.68,4,4,0,0,1-1.38,1,4.27,4.27,0,0,1-1.73.37,3.6,3.6,0,0,1-1.87-.45,5.42,5.42,0,0,1-1.44-1.31v3.89c0,1.14-.42,1.72-1.24,1.72a1,1,0,0,1-1-.44,2.81,2.81,0,0,1-.24-1.3V766.69a1.69,1.69,0,0,1,.32-1.11,1.27,1.27,0,0,1,1.78,0,1.52,1.52,0,0,1,.35,1.09m5.08,3.77a4.49,4.49,0,0,0-.31-1.77,2.64,2.64,0,0,0-.87-1.13,2.07,2.07,0,0,0-1.23-.39,2.32,2.32,0,0,0-1.81.84,3.73,3.73,0,0,0-.74,2.5,3.59,3.59,0,0,0,.74,2.4,2.3,2.3,0,0,0,1.81.86,2.17,2.17,0,0,0,1.2-.37,2.62,2.62,0,0,0,.88-1.13,4.5,4.5,0,0,0,.33-1.81" transform="translate(-39.59 -59.77)"/><path d="M463.88,764a1.35,1.35,0,0,1-.92-.33,1.17,1.17,0,0,1-.39-.94,1.16,1.16,0,0,1,.4-.91,1.36,1.36,0,0,1,1.8,0,1.18,1.18,0,0,1,.39,1,1.21,1.21,0,0,1-.37.94,1.36,1.36,0,0,1-.91.33m1.28,2.68v7.5a1.67,1.67,0,0,1-.37,1.18,1.25,1.25,0,0,1-.94.4,1.17,1.17,0,0,1-.92-.41,1.74,1.74,0,0,1-.36-1.17v-7.42a1.66,1.66,0,0,1,.36-1.16,1.19,1.19,0,0,1,.92-.39,1.24,1.24,0,0,1,.94.39,1.49,1.49,0,0,1,.37,1.08" transform="translate(-39.59 -59.77)"/><path d="M473.52,774.58l-2.28-3.76-1.41,1.32v2.07a1.59,1.59,0,0,1-.39,1.15,1.24,1.24,0,0,1-.91.41,1.18,1.18,0,0,1-.94-.4,1.77,1.77,0,0,1-.35-1.18V763.13a2.23,2.23,0,0,1,.34-1.32,1.11,1.11,0,0,1,.95-.45,1.2,1.2,0,0,1,1,.41,1.83,1.83,0,0,1,.35,1.2v6.3l2.92-3.06a6.43,6.43,0,0,1,.82-.78,1.24,1.24,0,0,1,1.51.1,1,1,0,0,1,.32.77c0,.38-.35.89-1,1.52L473,769.09l2.66,4.18c.19.31.34.54.42.7a1.08,1.08,0,0,1,.13.47,1.34,1.34,0,0,1-.34,1,1.15,1.15,0,0,1-.88.36,1,1,0,0,1-.74-.26,6,6,0,0,1-.7-.93" transform="translate(-39.59 -59.77)"/><path d="M479.16,775.77a1.44,1.44,0,0,1-1-.39,1.32,1.32,0,0,1-.43-1.06,1.39,1.39,0,0,1,.41-1,1.32,1.32,0,0,1,1-.41,1.42,1.42,0,0,1,1,.41,1.47,1.47,0,0,1,0,2.06,1.45,1.45,0,0,1-1,.39" transform="translate(-39.59 -59.77)"/><path d="M492.06,772.55a2.28,2.28,0,0,1-.29,1,3.42,3.42,0,0,1-.89,1,4.48,4.48,0,0,1-1.49.8,6.41,6.41,0,0,1-2,.31,5,5,0,0,1-3.76-1.4,5.2,5.2,0,0,1-1.35-3.76,6.24,6.24,0,0,1,.62-2.83,4.51,4.51,0,0,1,1.78-1.89,6.05,6.05,0,0,1,4.65-.37,4.89,4.89,0,0,1,1.42.75,3.71,3.71,0,0,1,.89,1,1.92,1.92,0,0,1,.31,1,1,1,0,0,1-.34.79,1.2,1.2,0,0,1-.84.33.85.85,0,0,1-.54-.17,2.21,2.21,0,0,1-.48-.54,3.77,3.77,0,0,0-1-1.08,2.16,2.16,0,0,0-1.31-.36,2.23,2.23,0,0,0-1.85.89,3.89,3.89,0,0,0-.71,2.46,4.66,4.66,0,0,0,.19,1.34,2.87,2.87,0,0,0,.52,1.05,2.23,2.23,0,0,0,.82.65,2.62,2.62,0,0,0,2.4-.13,3.06,3.06,0,0,0,1-1.1,2.63,2.63,0,0,1,.51-.69,1,1,0,0,1,1.46.12,1.16,1.16,0,0,1,.32.76" transform="translate(-39.59 -59.77)"/><path d="M503.25,770.49a6.16,6.16,0,0,1-.36,2.14,4.64,4.64,0,0,1-2.68,2.76,5.83,5.83,0,0,1-2.14.38,5.52,5.52,0,0,1-2.12-.39,4.61,4.61,0,0,1-1.62-1.08,4.91,4.91,0,0,1-1.06-1.67,6.66,6.66,0,0,1,0-4.29,4.54,4.54,0,0,1,2.67-2.75,5.83,5.83,0,0,1,2.12-.37,5.63,5.63,0,0,1,2.14.38,4.52,4.52,0,0,1,2.68,2.75,6.12,6.12,0,0,1,.36,2.14m-2.61,0A3.89,3.89,0,0,0,500,768a2.25,2.25,0,0,0-1.88-.89,2.34,2.34,0,0,0-1.34.39,2.45,2.45,0,0,0-.89,1.17,4.69,4.69,0,0,0-.31,1.79,4.84,4.84,0,0,0,.3,1.78,2.53,2.53,0,0,0,.89,1.16A2.43,2.43,0,0,0,500,773a3.91,3.91,0,0,0,.69-2.46" transform="translate(-39.59 -59.77)"/><path d="M513.14,770.69v3.44a1.77,1.77,0,0,1-.37,1.23,1.27,1.27,0,0,1-1,.41,1.22,1.22,0,0,1-1-.41,1.82,1.82,0,0,1-.37-1.23V770a14.71,14.71,0,0,0-.06-1.52,1.68,1.68,0,0,0-.37-.89,1.14,1.14,0,0,0-.93-.35,1.64,1.64,0,0,0-1.67.88,6.14,6.14,0,0,0-.41,2.51v3.5a1.84,1.84,0,0,1-.36,1.23,1.34,1.34,0,0,1-1.93,0,1.79,1.79,0,0,1-.38-1.23v-7.42a1.59,1.59,0,0,1,.34-1.11,1.12,1.12,0,0,1,.89-.38,1.25,1.25,0,0,1,.89.35,1.37,1.37,0,0,1,.35,1v.24a4.72,4.72,0,0,1,1.45-1.18,3.71,3.71,0,0,1,1.71-.38,3.42,3.42,0,0,1,1.68.39,3.1,3.1,0,0,1,1.16,1.17,4.77,4.77,0,0,1,1.41-1.18,3.65,3.65,0,0,1,1.66-.38,3.75,3.75,0,0,1,1.83.42,2.7,2.7,0,0,1,1.15,1.19,5.55,5.55,0,0,1,.33,2.22v5.06a1.77,1.77,0,0,1-.37,1.23,1.25,1.25,0,0,1-1,.41,1.26,1.26,0,0,1-1-.41,1.79,1.79,0,0,1-.38-1.23v-4.36a11.87,11.87,0,0,0-.06-1.34,1.53,1.53,0,0,0-.39-.84,1.23,1.23,0,0,0-1-.35,1.8,1.8,0,0,0-1,.31,2.26,2.26,0,0,0-.72.81,6.81,6.81,0,0,0-.28,2.33" transform="translate(-39.59 -59.77)"/><path d="M392.44,769.87v0Z" transform="translate(-39.59 -59.77)"/><path d="M392.57,770.7h0c-.05-.24-.09-.48-.12-.71C392.48,770.23,392.52,770.46,392.57,770.7Z" transform="translate(-39.59 -59.77)"/><path d="M393.42,773.1v0Z" transform="translate(-39.59 -59.77)"/><path d="M393.34,772.94l-.06-.13Z" transform="translate(-39.59 -59.77)"/><path d="M392.81,771.62a9,9,0,0,0,.45,1.16,8.68,8.68,0,0,1-.45-1.16Z" transform="translate(-39.59 -59.77)"/><path d="M402.47,759.93a7.5,7.5,0,0,1,1.3.11l.12-.76a8,8,0,0,0-2.71-.24l-.12-.41a1.06,1.06,0,1,0-.44,0l.13.46a10.81,10.81,0,0,0-2.93.87l.23.7a12.29,12.29,0,0,1,2.62-.61A15.29,15.29,0,0,1,402.47,759.93Z" transform="translate(-39.59 -59.77)"/><path d="M393.41,763.79h0l.11-.14-.31-.23-.49-.35a7.31,7.31,0,0,0-1.4,2,.47.47,0,0,0-.09-.12,1,1,0,0,0-.76-.29h0a.59.59,0,0,1-.43-.15.64.64,0,0,0,.15-.41.67.67,0,1,0-.67.67l.16,0a1,1,0,0,0,.81.33.55.55,0,0,1,.44.16.72.72,0,0,1,.16.43h0a7.27,7.27,0,0,0-.32,2.67l1.06,0a8,8,0,0,1,.37-2.23A10.21,10.21,0,0,1,393.41,763.79Z" transform="translate(-39.59 -59.77)"/><path d="M411.67,760.81a.67.67,0,0,0-.67.67.47.47,0,0,0,0,.17,1,1,0,0,0-.34.81.55.55,0,0,1-.15.43.77.77,0,0,1-.3.15,8.06,8.06,0,0,0-1.76-1.78l-.76.81a12.11,12.11,0,0,1,1.73,2,13.71,13.71,0,0,1,1.14,2l1-.49a15.24,15.24,0,0,0-1.12-2.19,1,1,0,0,0,.33-.19.94.94,0,0,0,.29-.76.64.64,0,0,1,.15-.44.68.68,0,0,0,.41.14.67.67,0,1,0,0-1.34Z" transform="translate(-39.59 -59.77)"/><path d="M409,770a23.09,23.09,0,0,1-6.79,2,25.88,25.88,0,0,1-3.42.22,28.7,28.7,0,0,1-3.57-.22c-1.07-.14-1.91-.3-2.43-.42a8.68,8.68,0,0,0,.45,1.16l0,0,.06.13s.05.09.07.13v0a7.92,7.92,0,0,0,1.08,1.55,5.72,5.72,0,0,0,2.93,1.83h0a11.9,11.9,0,0,0,3.29.42,14.5,14.5,0,0,0,5.68-1.16,9.34,9.34,0,0,0,3.25-2.67,7.56,7.56,0,0,0,1.05-2.3,6,6,0,0,0,.15-1.82A19.3,19.3,0,0,1,409,770Z" transform="translate(-39.59 -59.77)"/><path d="M393.86,764.12a10.62,10.62,0,0,0-1.14,2.26,8.38,8.38,0,0,0-.34,2.46h0c0,.34,0,.68.05,1v0s0,.08,0,.12c0,.23.07.47.12.71a27.12,27.12,0,0,0,9.55.5,21.9,21.9,0,0,0,6.5-1.93,14.27,14.27,0,0,0,2.12-1.24,13.64,13.64,0,0,0-1.75-3.64c-2-2.87-4.16-3.6-5.27-3.79a7.09,7.09,0,0,0-1.25-.11,16.85,16.85,0,0,0-1.74.12,12.2,12.2,0,0,0-2.53.59,9.74,9.74,0,0,0-3.53,2l0,0A7.21,7.21,0,0,0,393.86,764.12Zm12.27-.66a1.74,1.74,0,1,1-1.75,1.74A1.74,1.74,0,0,1,406.13,763.46Zm-8.24-.07a2.82,2.82,0,1,1-2.82,2.81A2.81,2.81,0,0,1,397.89,763.39Z" transform="translate(-39.59 -59.77)"/></g></g><g id="OBJECTS"><rect class="cls-2" y="86.79" width="1018.35" height="266.1" rx="30"/><line class="cls-3" x1="272.16" y1="127.21" x2="306.43" y2="113.36"/><path class="cls-4" d="M325.61,172l6.54,16.18L315,195.07c-4,1.6-8.65-.72-10.46-5.19s-.05-9.39,3.92-11Z" transform="translate(-39.59 -59.77)"/><path class="cls-5" d="M353.2,170.23c1.81,4.47.05,9.39-3.92,11l-17.13,6.92L325.61,172,342.75,165C346.72,163.44,351.4,165.76,353.2,170.23Z" transform="translate(-39.59 -59.77)"/><g class="cls-1"><path class="cls-6" d="M349.85,176.71a1.51,1.51,0,0,1-.83,2l-37,15a1.51,1.51,0,0,1-1.13-2.8l37-15A1.51,1.51,0,0,1,349.85,176.71Z" transform="translate(-39.59 -59.77)"/></g><line class="cls-3" x1="29.29" y1="145.99" x2="64.97" y2="155.62"/><path class="cls-7" d="M89,202.15,84.44,219,66.6,214.18c-4.13-1.12-6.47-5.79-5.21-10.44s5.62-7.52,9.76-6.41Z" transform="translate(-39.59 -59.77)"/><path class="cls-5" d="M112,217.41c-1.26,4.65-5.63,7.52-9.76,6.4L84.44,219,89,202.15,106.83,207C111,208.08,113.29,212.76,112,217.41Z" transform="translate(-39.59 -59.77)"/><g class="cls-1"><path class="cls-6" d="M105.45,220.56a1.52,1.52,0,0,1-1.85,1.07L65.05,211.22a1.51,1.51,0,1,1,.79-2.92l38.55,10.41A1.51,1.51,0,0,1,105.45,220.56Z" transform="translate(-39.59 -59.77)"/></g><circle class="cls-8" cx="129.45" cy="171.96" r="17.01" transform="translate(-100.12 213.37) rotate(-81.07)"/><polygon class="cls-9" points="106.8 110.56 72.93 110.56 72.89 113.29 72.89 113.3 106.84 113.3 106.8 110.56"/><path class="cls-8" d="M78,275a13.12,13.12,0,1,1,3.81-18.16A13.12,13.12,0,0,1,78,275Z" transform="translate(-39.59 -59.77)"/><polygon class="cls-9" points="39.42 214.46 25.14 192.6 23.35 193.72 23.35 193.73 37.67 215.64 39.42 214.46"/><path class="cls-10" d="M374.86,237a13.12,13.12,0,1,1-2.23-18.41A13.12,13.12,0,0,1,374.86,237Z" transform="translate(-39.59 -59.77)"/><polygon class="cls-11" points="336.01 176.16 315.46 160.05 314.13 161.69 314.13 161.7 334.73 177.84 336.01 176.16"/><path class="cls-12" d="M139.42,341.6l-14.09-40.91a2.21,2.21,0,0,0-2.8-1.37l-5.84,2-3.4-9.89a1.18,1.18,0,0,0-1.49-.73l-15.72,5.42a1.16,1.16,0,0,0-.72,1.48l3.4,9.89-5.84,2a2.2,2.2,0,0,0-1.36,2.8l14.09,40.91a2.18,2.18,0,0,0,2.79,1.36l29.61-10.19A2.21,2.21,0,0,0,139.42,341.6Z" transform="translate(-39.59 -59.77)"/><path class="cls-13" d="M120.89,297.28c.09.26-.62.74-1.6,1.07l-25,8.62c-1,.33-1.82.39-1.91.14L89.2,298c-.08-.26.63-.74,1.6-1.07l25-8.62c1-.33,1.83-.39,1.92-.14Z" transform="translate(-39.59 -59.77)"/><path class="cls-6" d="M128.28,323.25a2.2,2.2,0,0,1-1.36,2.8L107,332.91a2.2,2.2,0,0,1-2.79-1.37l-2.81-8.14a2.2,2.2,0,0,1,1.37-2.79l19.92-6.87a2.21,2.21,0,0,1,2.8,1.37Z" transform="translate(-39.59 -59.77)"/><path class="cls-14" d="M327.24,390.4c0,8.38-49.29,15.18-110.09,15.18s-110.09-6.8-110.09-15.18,49.29-15.17,110.09-15.17S327.24,382,327.24,390.4Z" transform="translate(-39.59 -59.77)"/><path class="cls-15" d="M201.14,359.49S137.89,322,101.28,387.55c4.6,3.87,11.28-1.94,28.12-7.09" transform="translate(-39.59 -59.77)"/><circle class="cls-16" cx="177.74" cy="378.06" r="15.71" transform="translate(-270.5 405.06) rotate(-76.81)"/><circle class="cls-16" cx="274.59" cy="378.06" r="15.71" transform="translate(-118.62 12.87) rotate(-13.19)"/><path class="cls-16" d="M224.54,271.62c-27.38,0-58.75,44.46-58.28,76,.22,15,14.58,42.53,32.56,42.53h51.44c18,0,32.34-27.5,32.56-42.53C283.29,316.08,251.91,271.62,224.54,271.62Z" transform="translate(-39.59 -59.77)"/><path class="cls-17" d="M206.32,334.06h-9a2.4,2.4,0,0,0-2.4,2.41v41.79A12.69,12.69,0,1,0,208,395c.42-.43.68-58.49.68-58.49A2.4,2.4,0,0,0,206.32,334.06Z" transform="translate(-39.59 -59.77)"/><path class="cls-17" d="M243.26,333.22h9a2.4,2.4,0,0,1,2.4,2.4v41.8a12.68,12.68,0,1,1-13.16,16.7c-.42-.44-.68-58.5-.68-58.5A2.41,2.41,0,0,1,243.26,333.22Z" transform="translate(-39.59 -59.77)"/><path class="cls-18" d="M313.39,264a88.6,88.6,0,1,1-88.6-88.6A88.59,88.59,0,0,1,313.39,264Z" transform="translate(-39.59 -59.77)"/><path class="cls-15" d="M258.93,209.6s20.18-16,33.17-15.26S333.43,247,329,252.13s-61.78-16.73-70-17.78S258.93,209.6,258.93,209.6Z" transform="translate(-39.59 -59.77)"/><path class="cls-16" d="M282.56,256.1a58,58,0,1,1-58-58A58,58,0,0,1,282.56,256.1Z" transform="translate(-39.59 -59.77)"/><path class="cls-5" d="M255.89,297.05c0,17.31-14,20.82-31.35,20.82s-31.35-3.51-31.35-20.82a31.35,31.35,0,1,1,62.7,0Z" transform="translate(-39.59 -59.77)"/><path class="cls-15" d="M221.9,241.13a39.33,39.33,0,0,1-50.8,37.6,58.07,58.07,0,0,1,26.4-74A39.3,39.3,0,0,1,221.9,241.13Z" transform="translate(-39.59 -59.77)"/><path d="M200.21,259.61a6.09,6.09,0,1,1-6.08-6.08A6.09,6.09,0,0,1,200.21,259.61Z" transform="translate(-39.59 -59.77)"/><circle cx="215.37" cy="199.84" r="6.08"/><path d="M235.77,278.83a11.23,11.23,0,0,1-22.46,0c0-6.2,5-5.14,11.23-5.14S235.77,272.63,235.77,278.83Z" transform="translate(-39.59 -59.77)"/><path class="cls-19" d="M224.15,288.12s2.47,17.26-13.65,15.48" transform="translate(-39.59 -59.77)"/><path class="cls-19" d="M224.56,288.12s-2.47,17.26,13.66,15.48" transform="translate(-39.59 -59.77)"/><path class="cls-15" d="M190.15,209.6S170,193.64,157,194.34,115.64,247,120.13,252.13s61.78-16.73,70-17.78S190.15,209.6,190.15,209.6Z" transform="translate(-39.59 -59.77)"/><path class="cls-20" d="M297.62,352.66l-2.74-3.89a1.68,1.68,0,0,1,.23-2.35l21.68-15.27,3.77,5.36Z" transform="translate(-39.59 -59.77)"/><path class="cls-21" d="M310,335a2.9,2.9,0,0,1,.71-4.05l49.84-35.1a2.91,2.91,0,0,1,4,.7l7.85,11.15a2.91,2.91,0,0,1-.7,4.05l-49.84,35.09a2.9,2.9,0,0,1-4.05-.7Z" transform="translate(-39.59 -59.77)"/><line class="cls-6" x1="333.07" y1="239.38" x2="372.82" y2="211.39"/><path d="M372.76,299.63a.5.5,0,0,1-.5-.2.48.48,0,0,1,.12-.67l39.75-28a.48.48,0,0,1,.67.12.47.47,0,0,1-.11.67l-39.75,28A.71.71,0,0,1,372.76,299.63Z" transform="translate(-39.59 -59.77)"/><path class="cls-21" d="M299.73,355.66l-2.11-3,22.94-16.15-3.77-5.36,4.67-3.29a1.68,1.68,0,0,1,2.29.58l4.86,6.89a1.69,1.69,0,0,1-.23,2.35L302,356.24A1.68,1.68,0,0,1,299.73,355.66Z" transform="translate(-39.59 -59.77)"/><path class="cls-21" d="M364.3,302.4c-.3-.41-.4-.85-.22-1l6.5-4.58c.17-.12.54.12.83.54l2.49,3.53c.29.41.39.85.22,1l-6.5,4.57c-.17.13-.55-.11-.84-.53Z" transform="translate(-39.59 -59.77)"/><path class="cls-22" d="M321,328.79a2.31,2.31,0,0,1,.5-3.22l38.9-27.39a2.3,2.3,0,0,1,3.2.61l6.34,9a2.3,2.3,0,0,1-.5,3.22l-38.9,27.39a2.29,2.29,0,0,1-3.2-.61Z" transform="translate(-39.59 -59.77)"/><path class="cls-21" d="M306.13,329.88a1.61,1.61,0,1,1,2.57-1.81l15.18,21.56a1.6,1.6,0,1,1-2.57,1.81Z" transform="translate(-39.59 -59.77)"/><path class="cls-21" d="M291.84,347.19a1.61,1.61,0,1,1,2.57-1.81l8.36,11.87a1.6,1.6,0,1,1-2.57,1.81Z" transform="translate(-39.59 -59.77)"/><line class="cls-6" x1="309.37" y1="248.21" x2="313.04" y2="253.41"/><path d="M352.72,313.66a.46.46,0,0,1-.49-.2l-3.67-5.2a.49.49,0,0,1,.12-.68.48.48,0,0,1,.67.12l3.67,5.21a.48.48,0,0,1-.12.67A.58.58,0,0,1,352.72,313.66Z" transform="translate(-39.59 -59.77)"/><line class="cls-6" x1="312.5" y1="246.02" x2="316.16" y2="251.23"/><path d="M355.85,311.47a.5.5,0,0,1-.5-.19l-3.66-5.21a.48.48,0,0,1,.11-.68.49.49,0,0,1,.68.12l3.67,5.21a.48.48,0,0,1-.12.67A.48.48,0,0,1,355.85,311.47Z" transform="translate(-39.59 -59.77)"/><line class="cls-6" x1="315.62" y1="243.83" x2="319.29" y2="249.04"/><path d="M359,309.28a.49.49,0,0,1-.5-.19l-3.67-5.21a.48.48,0,0,1,.79-.56l3.67,5.21a.49.49,0,0,1-.12.68A.51.51,0,0,1,359,309.28Z" transform="translate(-39.59 -59.77)"/><line class="cls-6" x1="318.75" y1="241.65" x2="322.42" y2="246.85"/><path d="M362.1,307.1a.46.46,0,0,1-.49-.2l-3.67-5.21a.47.47,0,0,1,.12-.67.48.48,0,0,1,.67.12l3.67,5.21a.48.48,0,0,1-.12.67A.49.49,0,0,1,362.1,307.1Z" transform="translate(-39.59 -59.77)"/><line class="cls-6" x1="321.88" y1="239.46" x2="326.69" y2="246.31"/><path d="M366.38,306.55a.47.47,0,0,1-.5-.2l-4.81-6.84a.48.48,0,0,1,.11-.68.49.49,0,0,1,.68.12l4.81,6.85a.48.48,0,0,1-.12.67A.53.53,0,0,1,366.38,306.55Z" transform="translate(-39.59 -59.77)"/><line class="cls-6" x1="293.65" y1="259.2" x2="297.32" y2="264.41"/><path d="M337,324.65a.48.48,0,0,1-.5-.19l-3.67-5.21a.49.49,0,0,1,.12-.68.48.48,0,0,1,.67.12l3.67,5.21a.48.48,0,0,1-.12.67A.38.38,0,0,1,337,324.65Z" transform="translate(-39.59 -59.77)"/><line class="cls-6" x1="296.78" y1="257.01" x2="300.45" y2="262.22"/><path d="M340.13,322.46a.47.47,0,0,1-.49-.19L336,317.06a.47.47,0,0,1,.11-.67.49.49,0,0,1,.68.11l3.67,5.21a.49.49,0,0,1-.12.68A.45.45,0,0,1,340.13,322.46Z" transform="translate(-39.59 -59.77)"/><line class="cls-6" x1="299.9" y1="254.83" x2="303.57" y2="260.03"/><path d="M343.26,320.28a.48.48,0,0,1-.5-.2l-3.67-5.2a.49.49,0,0,1,.8-.56l3.66,5.21a.48.48,0,0,1-.11.67A.71.71,0,0,1,343.26,320.28Z" transform="translate(-39.59 -59.77)"/><line class="cls-6" x1="303.03" y1="252.64" x2="306.7" y2="257.85"/><path d="M346.39,318.09a.48.48,0,0,1-.5-.19l-3.67-5.21a.49.49,0,0,1,.12-.68.48.48,0,0,1,.67.12l3.67,5.21a.48.48,0,0,1-.12.67A.38.38,0,0,1,346.39,318.09Z" transform="translate(-39.59 -59.77)"/><line class="cls-6" x1="306.16" y1="250.45" x2="310.97" y2="257.3"/><path d="M350.66,317.54a.5.5,0,0,1-.5-.19l-4.81-6.85a.48.48,0,0,1,.11-.67.49.49,0,0,1,.68.11l4.81,6.85a.48.48,0,0,1-.29.75Z" transform="translate(-39.59 -59.77)"/><line class="cls-6" x1="277.76" y1="270.32" x2="281.43" y2="275.53"/><path d="M321.11,335.77a.49.49,0,0,1-.5-.2l-3.66-5.2a.48.48,0,0,1,.11-.68.49.49,0,0,1,.68.12l3.67,5.21a.48.48,0,0,1-.12.67A.48.48,0,0,1,321.11,335.77Z" transform="translate(-39.59 -59.77)"/><line class="cls-6" x1="280.88" y1="268.13" x2="284.55" y2="273.34"/><path d="M324.24,333.58a.49.49,0,0,1-.5-.19l-3.67-5.21a.49.49,0,0,1,.12-.68.48.48,0,0,1,.67.12l3.67,5.21a.47.47,0,0,1-.12.67A.38.38,0,0,1,324.24,333.58Z" transform="translate(-39.59 -59.77)"/><line class="cls-6" x1="284.01" y1="265.94" x2="287.68" y2="271.15"/><path d="M327.36,331.39a.47.47,0,0,1-.49-.19L323.2,326a.48.48,0,0,1,.79-.55l3.67,5.2a.49.49,0,0,1-.12.68A.36.36,0,0,1,327.36,331.39Z" transform="translate(-39.59 -59.77)"/><line class="cls-6" x1="287.14" y1="263.76" x2="290.8" y2="268.96"/><path d="M330.49,329.21a.49.49,0,0,1-.5-.2l-3.66-5.2a.48.48,0,1,1,.79-.56l3.66,5.21a.47.47,0,0,1-.11.67A.71.71,0,0,1,330.49,329.21Z" transform="translate(-39.59 -59.77)"/><line class="cls-6" x1="290.26" y1="261.57" x2="295.08" y2="268.42"/><path d="M334.76,328.66a.46.46,0,0,1-.49-.2l-4.82-6.84a.49.49,0,0,1,.12-.68.48.48,0,0,1,.67.12l4.82,6.85a.48.48,0,0,1-.12.67A.37.37,0,0,1,334.76,328.66Z" transform="translate(-39.59 -59.77)"/><rect class="cls-23" y="390.02" width="720.83" height="266.1" rx="30"/><text class="cls-24" transform="translate(403.11 475.9)"><tspan class="cls-25">V</tspan><tspan x="25.2" y="0">et clinic</tspan></text><text class="cls-26" transform="translate(403.11 510.57)">In oblique admodum eum, sint populo <tspan x="0" y="25">nonumes quo at. In inani alterum disputando </tspan><tspan x="0" y="50" xml:space="preserve">ius, ad pro  eu</tspan></text><line class="cls-3" x1="31.55" y1="512.41" x2="66.07" y2="525.61"/><path class="cls-27" d="M91.51,570.63l-6.23,16.3L68,580.33c-4-1.53-5.85-6.41-4.13-10.91s6.36-6.92,10.36-5.39Z" transform="translate(-39.59 -59.77)"/><path class="cls-5" d="M112.89,588.15c-1.72,4.5-6.35,6.91-10.35,5.38l-17.26-6.6,6.23-16.3,17.26,6.6C112.77,578.76,114.61,583.65,112.89,588.15Z" transform="translate(-39.59 -59.77)"/><g class="cls-1"><path class="cls-6" d="M106,590.62a1.51,1.51,0,0,1-2,.87L66.78,577.23a1.51,1.51,0,1,1,1.07-2.82l37.3,14.26A1.51,1.51,0,0,1,106,590.62Z" transform="translate(-39.59 -59.77)"/></g><path class="cls-12" d="M130.73,641.56a13.12,13.12,0,1,1-2.24-18.42A13.12,13.12,0,0,1,130.73,641.56Z" transform="translate(-39.59 -59.77)"/><polygon class="cls-28" points="91.87 580.75 71.32 564.65 69.99 566.29 69.99 566.29 90.59 582.44 91.87 580.75"/><path class="cls-29" d="M311.69,681.37c0,8.38-49.29,15.18-110.09,15.18s-110.09-6.8-110.09-15.18S140.8,666.2,201.6,666.2,311.69,673,311.69,681.37Z" transform="translate(-39.59 -59.77)"/><path class="cls-30" d="M199.43,667.89s-63.28-7.18-97.95,16.41" transform="translate(-39.59 -59.77)"/><circle class="cls-31" cx="166.42" cy="680.67" r="15.71" transform="translate(-573.88 623.19) rotate(-76.45)"/><circle class="cls-31" cx="263.27" cy="680.67" r="15.71" transform="translate(-189.89 19.59) rotate(-13.37)"/><path class="cls-31" d="M213.22,574.22c-27.37,0-58.75,44.47-58.28,76,.22,15,14.58,42.53,32.56,42.53h51.44c18,0,32.34-27.49,32.56-42.53C272,618.69,240.6,574.22,213.22,574.22Z" transform="translate(-39.59 -59.77)"/><path class="cls-32" d="M195,636.67h-9a2.4,2.4,0,0,0-2.4,2.4v41.8a12.68,12.68,0,1,0,13.17,16.69c.42-.43.68-58.49.68-58.49A2.4,2.4,0,0,0,195,636.67Z" transform="translate(-39.59 -59.77)"/><path class="cls-32" d="M231.94,635.82H241a2.41,2.41,0,0,1,2.4,2.41V680a12.69,12.69,0,1,1-13.17,16.7c-.42-.43-.68-58.49-.68-58.49A2.41,2.41,0,0,1,231.94,635.82Z" transform="translate(-39.59 -59.77)"/><path class="cls-18" d="M302.07,566.59A88.6,88.6,0,1,1,213.48,478,88.59,88.59,0,0,1,302.07,566.59Z" transform="translate(-39.59 -59.77)"/><path class="cls-32" d="M271.5,566.59a58,58,0,1,1-58-58A58,58,0,0,1,271.5,566.59Z" transform="translate(-39.59 -59.77)"/><path class="cls-5" d="M241.7,607c0,15.59-12.63,18.75-28.22,18.75S185.25,622.6,185.25,607a28.23,28.23,0,1,1,56.45,0Z" transform="translate(-39.59 -59.77)"/><circle cx="143.48" cy="510.33" r="6.08"/><path d="M237.81,570.1a6.08,6.08,0,1,0,6.08-6.08A6.08,6.08,0,0,0,237.81,570.1Z" transform="translate(-39.59 -59.77)"/><path class="cls-33" d="M213.09,598.61s2.46,17.26-13.66,15.47" transform="translate(-39.59 -59.77)"/><path class="cls-33" d="M213.5,598.61s-2.47,17.26,13.65,15.47" transform="translate(-39.59 -59.77)"/><path d="M220.16,595.54a6.68,6.68,0,0,1-13.36,0c0-3.69,3-3.06,6.68-3.06S220.16,591.85,220.16,595.54Z" transform="translate(-39.59 -59.77)"/><path class="cls-32" d="M236.9,539.42s-7.56-9.7-6.2-21,47.92-20,48.05-13.43c.52,26.79-8.66,43-13.48,48C263.75,560.14,236.9,539.42,236.9,539.42Z" transform="translate(-39.59 -59.77)"/><path class="cls-34" d="M274.23,508.87c-.44-5.46-37.91,1.81-39,11.26s9.35,21.23,28,28.84C264.41,548.41,276,530.72,274.23,508.87Z" transform="translate(-39.59 -59.77)"/><path class="cls-32" d="M190.05,539.42S163.19,560.14,161.68,553c-3.33-3.45-8.74-12.27-11.6-26.24a6.77,6.77,0,0,0,3.71-1.17,6.08,6.08,0,0,0,2.75-5.05,6.22,6.22,0,0,0-4-5.72,6.79,6.79,0,0,0-2.64-.52,6.14,6.14,0,0,0-1.49.17c-.21-3-.29-6.15-.23-9.47.12-6.55,46.68,2.1,48.05,13.43S190.05,539.42,190.05,539.42Z" transform="translate(-39.59 -59.77)"/><path class="cls-34" d="M163.72,549c-.86-.41-7.2-9.86-9.93-23.39a6.08,6.08,0,0,0,2.75-5.05,6.22,6.22,0,0,0-4-5.72,59.26,59.26,0,0,1,.16-5.93c.44-5.46,37.9,1.8,39,11.26S182.4,541.36,163.72,549Z" transform="translate(-39.59 -59.77)"/><path class="cls-31" d="M331.09,514.48c6.23-7.33,4.7-17.68-.07-24.93a5.16,5.16,0,0,0-1.4-1.28c-8.42-4.09-13.1-4.25-18.73-1.86l-.32.15a17.71,17.71,0,0,0-5.3,3.77c-.23.23-.47.47-.69.72-7.08,7.72-.72,13.62,7.56,17.93,5.35,8.19,11.44,13.7,18.52,6Z" transform="translate(-39.59 -59.77)"/><path class="cls-31" d="M323.47,471.59c-.56,3.61-3.36,6.32-6.26,6.05s-4.78-3.42-4.22-7,3.36-6.32,6.25-6.05S324,468,323.47,471.59Z" transform="translate(-39.59 -59.77)"/><path class="cls-31" d="M337.38,476.54c-1.14,3.51-4.32,5.74-7.1,5s-4.11-4.21-3-7.71,4.32-5.74,7.1-5S338.52,473,337.38,476.54Z" transform="translate(-39.59 -59.77)"/><path class="cls-31" d="M346.5,488.24c-2.54,2.72-6.29,3.35-8.37,1.41s-1.69-5.73.86-8.45,6.29-3.36,8.37-1.42S349.05,485.51,346.5,488.24Z" transform="translate(-39.59 -59.77)"/><path class="cls-31" d="M348.36,505.54c-3.6.51-6.7-1.44-6.92-4.36s2.51-5.7,6.1-6.21,6.69,1.45,6.92,4.37S352,505,348.36,505.54Z" transform="translate(-39.59 -59.77)"/><path class="cls-35" d="M74.92,530.35c-3.71-3.7,6.86-18.7,25.94-37.82s32.74-31,36.45-27.31c1.21,1.21,4.4,3.69,2.46,7.6-8,4-19.43,13.56-32.23,26.39S84.92,524.58,81,532.56C77.05,534.51,76.13,531.56,74.92,530.35Z" transform="translate(-39.59 -59.77)"/><path class="cls-36" d="M141.77,468.58c4.36,4.35-6.63,20.54-25.84,39.79s-33.14,31.09-37.5,26.74c-1.43-1.43-5.83-5.1-4-9.21,8.38-3.66,20.79-12.46,33.68-25.38s22.56-27.19,26.21-35.58C138.38,463.14,140.34,467.15,141.77,468.58Z" transform="translate(-39.59 -59.77)"/><rect class="cls-37" x="106.75" y="498.91" width="3.67" height="3.56" transform="translate(-362.08 164.07) rotate(-45.05)"/><path class="cls-38" d="M119.78,500.75a7.67,7.67,0,1,1-10.84,0A7.65,7.65,0,0,1,119.78,500.75Z" transform="translate(-39.59 -59.77)"/><rect class="cls-22" x="313.22" y="569.09" width="52.26" height="1.75" transform="translate(-360.45 445.93) rotate(-53.67)"/><path class="cls-5" d="M359.57,542.47c2,1.45.09,7.33-1.29,9.22a4.42,4.42,0,0,1-7.12-5.23C352.54,544.57,357.61,541,359.57,542.47Z" transform="translate(-39.59 -59.77)"/><path class="cls-5" d="M319.13,597.46c2,1.45,7-2.09,8.42-4a4.42,4.42,0,0,0-7.12-5.24C319,590.13,317.17,596,319.13,597.46Z" transform="translate(-39.59 -59.77)"/><rect class="cls-22" x="323.41" y="563.89" width="52.26" height="1.75" transform="translate(-94.85 -21.57) rotate(-5.8)"/><path class="cls-5" d="M383.5,561.32c.25,2.43-5.37,5-7.71,5.22a4.42,4.42,0,0,1-.89-8.79C377.23,557.51,383.26,558.89,383.5,561.32Z" transform="translate(-39.59 -59.77)"/><path class="cls-5" d="M315.59,568.21c.25,2.43,6.27,3.81,8.6,3.57a4.42,4.42,0,0,0-.89-8.79C321,563.22,315.34,565.78,315.59,568.21Z" transform="translate(-39.59 -59.77)"/><text class="cls-39" transform="translate(128.31 40.18)">FL<tspan class="cls-40" x="55.63" y="0">A</tspan><tspan class="cls-41" x="86.11" y="0">T</tspan><tspan class="cls-42" x="114.77" y="0"> </tspan><tspan x="128.01" y="0">V</tspan><tspan class="cls-43" x="159.6" y="0">E</tspan><tspan class="cls-41" x="188.78" y="0">T BANNERS</tspan></text><path class="cls-44" d="M298.73,671.65l2.16,2.63.06.06.1.12a3.16,3.16,0,0,0,4.45.21l63.83-52.84,2-1.65.08-.1c1.3-1.15.89-2.74.55-4.32h0s0-.09,0-.14a8.86,8.86,0,0,1,1-2.93l.09-.15a6.45,6.45,0,0,1,1-1c.74-.63,1.61-1.28,2.41-1.87.64-.47,1.23-.89,1.64-1.23a2,2,0,0,0,.25-2.45v0h0a2,2,0,0,0-2.46-.23c-.41.35-.94.85-1.51,1.38-.74.68-1.54,1.41-2.3,2a6.71,6.71,0,0,1-1.19.75.85.85,0,0,1-.17.06,9,9,0,0,1-3.08.47l-.13,0h0c-1.5-.64-3-1.35-4.36-.27l-.1,0-1.87,1.55-64.11,52.77a3.14,3.14,0,0,0-.64,4.4l.1.12,0,.08Z" transform="translate(-39.59 -59.77)"/><path class="cls-45" d="M299.2,669a3,3,0,0,1,.4-4.22l61.91-51.25a3,3,0,0,1,4.23.4l2.23,2.7a3,3,0,0,1-.4,4.22L305.65,672.1a3,3,0,0,1-4.22-.4Z" transform="translate(-39.59 -59.77)"/><path class="cls-46" d="M373,612.6l-2.23-2.71a.85.85,0,0,0,.17-.06c1.48-.67,3.76-3.12,5-4.15a2,2,0,0,1,2.46.23l0,0a2,2,0,0,1-.25,2.45C376.85,609.43,374.1,611.24,373,612.6Z" transform="translate(-39.59 -59.77)"/><rect class="cls-46" x="337.14" y="623.79" width="39.41" height="0.5" transform="translate(-355.52 311.04) rotate(-39.61)"/><polygon class="cls-47" points="263.82 608.83 302.24 577.03 301.92 576.64 263.5 608.44 260.81 610.67 261.13 611.06 263.82 608.83"/><line class="cls-6" x1="308.08" y1="566.91" x2="311.66" y2="571.22"/><path d="M351.35,631.41a.43.43,0,0,1-.48-.12L347.3,627a.44.44,0,0,1,.09-.63.45.45,0,0,1,.64,0l3.58,4.3a.46.46,0,0,1-.1.64A.65.65,0,0,1,351.35,631.41Z" transform="translate(-39.59 -59.77)"/><line class="cls-6" x1="311.68" y1="563.94" x2="315.26" y2="568.25"/><path d="M355,628.44a.43.43,0,0,1-.48-.12l-3.58-4.3a.48.48,0,0,1,.74-.61l3.58,4.3a.45.45,0,0,1-.1.63A.47.47,0,0,1,355,628.44Z" transform="translate(-39.59 -59.77)"/><line class="cls-6" x1="315.28" y1="560.98" x2="318.85" y2="565.28"/><path d="M358.54,625.47a.42.42,0,0,1-.47-.12l-3.58-4.3a.45.45,0,0,1,.1-.63.45.45,0,0,1,.64,0l3.58,4.3a.47.47,0,0,1-.1.64A.56.56,0,0,1,358.54,625.47Z" transform="translate(-39.59 -59.77)"/><line class="cls-6" x1="318.87" y1="558.01" x2="322.45" y2="562.31"/><path d="M362.14,622.5a.43.43,0,0,1-.47-.11l-3.58-4.31a.45.45,0,0,1,.1-.63.45.45,0,0,1,.64,0l3.58,4.3a.47.47,0,0,1-.1.64A.56.56,0,0,1,362.14,622.5Z" transform="translate(-39.59 -59.77)"/><line class="cls-6" x1="322.47" y1="555.04" x2="326.05" y2="559.34"/><path d="M367.14,621.22a.56.56,0,0,1-.56-.21l-4.8-5.79a.53.53,0,0,1,0-.74.54.54,0,0,1,.74.13l4.8,5.78a.53.53,0,0,1,0,.75A.34.34,0,0,1,367.14,621.22Z" transform="translate(-39.59 -59.77)"/><line class="cls-6" x1="290.16" y1="581.71" x2="293.74" y2="586.01"/><path d="M333.43,646.2a.44.44,0,0,1-.48-.11l-3.57-4.31a.44.44,0,0,1,.09-.63.45.45,0,0,1,.64,0l3.58,4.3a.46.46,0,0,1-.1.64A.65.65,0,0,1,333.43,646.2Z" transform="translate(-39.59 -59.77)"/><line class="cls-6" x1="293.76" y1="578.74" x2="297.34" y2="583.04"/><path d="M337,643.23a.44.44,0,0,1-.48-.11L333,638.81a.45.45,0,0,1,.1-.63.45.45,0,0,1,.64,0l3.58,4.3a.46.46,0,0,1-.1.64A.65.65,0,0,1,337,643.23Z" transform="translate(-39.59 -59.77)"/><line class="cls-6" x1="297.35" y1="575.77" x2="300.93" y2="580.07"/><path d="M340.62,640.26a.43.43,0,0,1-.47-.11l-3.58-4.31a.45.45,0,0,1,.1-.63.45.45,0,0,1,.64,0l3.58,4.3a.47.47,0,0,1-.1.64A.56.56,0,0,1,340.62,640.26Z" transform="translate(-39.59 -59.77)"/><line class="cls-6" x1="300.95" y1="572.8" x2="304.53" y2="577.1"/><path d="M344.22,637.29a.43.43,0,0,1-.47-.11l-3.58-4.31a.45.45,0,0,1,.1-.63.45.45,0,0,1,.64,0l3.58,4.3a.47.47,0,0,1-.1.64A.56.56,0,0,1,344.22,637.29Z" transform="translate(-39.59 -59.77)"/><line class="cls-6" x1="304.55" y1="569.83" x2="308.13" y2="574.13"/><path d="M349.22,636a.59.59,0,0,1-.56-.22l-4.8-5.78a.49.49,0,1,1,.74-.62l4.8,5.78a.53.53,0,0,1,0,.75A.56.56,0,0,1,349.22,636Z" transform="translate(-39.59 -59.77)"/><line class="cls-6" x1="272.24" y1="596.5" x2="275.82" y2="600.8"/><path d="M315.51,661a.44.44,0,0,1-.48-.11l-3.58-4.31a.48.48,0,0,1,.74-.61l3.58,4.31a.45.45,0,0,1-.1.63A.65.65,0,0,1,315.51,661Z" transform="translate(-39.59 -59.77)"/><line class="cls-6" x1="275.83" y1="593.53" x2="279.41" y2="597.83"/><path d="M319.1,658a.43.43,0,0,1-.47-.11l-3.58-4.31a.45.45,0,0,1,.1-.63.45.45,0,0,1,.64,0l3.58,4.31a.45.45,0,0,1-.1.63A.56.56,0,0,1,319.1,658Z" transform="translate(-39.59 -59.77)"/><line class="cls-6" x1="279.43" y1="590.56" x2="283.01" y2="594.86"/><path d="M322.7,655.05a.43.43,0,0,1-.47-.11l-3.58-4.31a.45.45,0,0,1,.1-.63.45.45,0,0,1,.64,0l3.58,4.31a.45.45,0,0,1-.1.63A.56.56,0,0,1,322.7,655.05Z" transform="translate(-39.59 -59.77)"/><line class="cls-6" x1="283.03" y1="587.59" x2="286.61" y2="591.89"/><path d="M326.3,652.08a.43.43,0,0,1-.47-.11l-3.58-4.3a.49.49,0,0,1,.74-.62l3.57,4.31a.44.44,0,0,1-.09.63A.56.56,0,0,1,326.3,652.08Z" transform="translate(-39.59 -59.77)"/><line class="cls-6" x1="286.63" y1="584.62" x2="290.21" y2="588.92"/><path d="M331.3,650.81a.59.59,0,0,1-.56-.22l-4.8-5.78a.49.49,0,1,1,.74-.62l4.8,5.79a.53.53,0,0,1,0,.74A.56.56,0,0,1,331.3,650.81Z" transform="translate(-39.59 -59.77)"/><line class="cls-6" x1="257.91" y1="608.32" x2="261.49" y2="612.62"/><line class="cls-6" x1="261.51" y1="605.35" x2="265.09" y2="609.65"/><path d="M304.78,669.84a.43.43,0,0,1-.47-.11l-3.58-4.3a.49.49,0,0,1,.74-.62l3.58,4.31a.45.45,0,0,1-.1.63A.56.56,0,0,1,304.78,669.84Z" transform="translate(-39.59 -59.77)"/><line class="cls-6" x1="265.11" y1="602.38" x2="268.69" y2="606.68"/><path d="M308.38,666.87a.41.41,0,0,1-.47-.11l-3.58-4.3a.46.46,0,0,1,.09-.64.45.45,0,0,1,.64,0l3.58,4.31a.45.45,0,0,1-.09.63A.56.56,0,0,1,308.38,666.87Z" transform="translate(-39.59 -59.77)"/><line class="cls-6" x1="268.71" y1="599.41" x2="272.29" y2="603.71"/><path d="M313.38,665.6a.59.59,0,0,1-.56-.22L308,659.6a.54.54,0,0,1,0-.75.52.52,0,0,1,.73.14l4.8,5.78a.52.52,0,0,1,0,.74A.32.32,0,0,1,313.38,665.6Z" transform="translate(-39.59 -59.77)"/><rect class="cls-48" x="402.56" y="582.14" width="143.26" height="37.91" rx="2.66"/><text class="cls-49" transform="translate(419.11 608.59)">READ MORE</text><text class="cls-24" transform="translate(403.11 166.89)"><tspan class="cls-25">V</tspan><tspan x="25.2" y="0">et </tspan><tspan class="cls-50" x="75.31" y="0">D</tspan><tspan class="cls-51" x="107.71" y="0">’</tspan><tspan class="cls-52" x="117.21" y="0">M</tspan><tspan x="156.09" y="0">as</tspan><tspan class="cls-53" x="198.24" y="0">c</tspan><tspan x="219.45" y="0">ota</tspan></text><text class="cls-26" transform="translate(403.11 201.55)">In oblique admodum eum, sint populo <tspan x="0" y="25">nonumes quo at. In inani alterum disputando </tspan><tspan x="0" y="50" xml:space="preserve">ius, ad pro  eu</tspan></text><rect class="cls-54" x="402.56" y="273.12" width="143.26" height="37.91" rx="2.66"/><text class="cls-49" transform="translate(419.11 299.57)">READ MORE</text><text class="cls-55" transform="translate(527.87 102.71)"><tspan class="cls-56">L</tspan><tspan x="5.5" y="0">o</tspan><tspan class="cls-57" x="12.08" y="0">r</tspan><tspan x="15.89" y="0">em ipsum</tspan></text></g></svg>