<?xml version="1.0" encoding="UTF-8"?>
<!DOCTYPE svg PUBLIC "-//W3C//DTD SVG 1.1//EN" "http://www.w3.org/Graphics/SVG/1.1/DTD/svg11.dtd">
<!-- Creator: CorelDRAW 2019 (64-Bit) -->
<svg xmlns="http://www.w3.org/2000/svg" xml:space="preserve" width="33.7972mm" height="26.5258mm" version="1.1" style="shape-rendering:geometricPrecision; text-rendering:geometricPrecision; image-rendering:optimizeQuality; fill-rule:evenodd; clip-rule:evenodd"
viewBox="0 0 561.7 440.85"
 xmlns:xlink="http://www.w3.org/1999/xlink">
 <defs>
  <style type="text/css">
   <![CDATA[
    .fil0 {fill:#FEFEFE}
   ]]>
  </style>
 </defs>
 <g id="Capa_x0020_1">
  <metadata id="CorelCorpID_0Corel-Layer"/>
  <g id="_1330002847584">
   <path class="fil0" d="M152.68 199.54c-17.51,-12.34 -20.52,40.27 -39.62,46.38 -15.78,5.04 -33.1,-22.45 -44.2,-30.85 -6.62,-5.02 -14.42,-2.65 -10.64,6.79 1.46,3.66 19.45,20.06 24.52,25.91 10.73,12.39 12.35,12.13 18.26,31.89 33.7,112.58 126.49,167.6 242.78,160.61 104.64,-6.29 204.72,-75.71 216.06,-187.23 7.29,-71.64 -7.1,-112.79 -39.11,-158.81 -47.88,-68.83 -123.96,-99.14 -209.19,-93.57 -32.18,2.1 -54.96,12.24 -84.04,18.38 -14.58,3.08 -36.47,-0.05 -46.17,3.78 -28.25,11.17 -11.16,58.68 23.01,44.24 13.09,-5.53 13.34,-20.34 22.26,-27.66 13.15,-10.79 56.81,-19.47 78.36,-21.96 151.91,-17.55 270.77,121.29 232.47,259.09 -48.6,174.82 -295.43,191.81 -381.69,68.17 -7.58,-10.87 -12,-19.38 -18.65,-31.43 -6.86,-12.43 -13.81,-20.96 -11.92,-38.65 2.95,-27.56 27.83,-57.8 27.52,-75.06z"/>
   <path class="fil0" d="M307.9 289.21c-31.87,-22.03 -23.47,-43.34 -5.69,-50.81 17.59,-7.39 21.59,5.56 30.89,8.78 9.06,-7.06 13.74,-15.28 30.4,-8.14 9.31,3.99 16.71,14.32 13.75,28.25 -2.66,12.55 -26.65,26.03 -44.16,41.27l-25.2 -19.35zm138.66 21.24c6.53,-25.68 -6.52,-40.03 -22.88,-53.02l-39.43 -37.51c-6.14,-7.46 -17.1,-19.9 -24.37,-25.69 -24.98,-19.88 -55.36,-6.55 -70.5,11.68 -31.89,38.39 -15.21,19.5 -48.76,53.23 -20.27,20.38 -29.76,46.42 -14.68,74.38 17.47,32.41 51.06,15.53 71.88,9.7 36.61,-10.26 54.7,1.08 88.5,6.61 35.33,5.79 52.95,-10.81 60.22,-39.38z"/>
   <path class="fil0" d="M370.96 79.31c-46.59,10.67 -45.59,110.86 8.69,105.96 22.3,-2.01 32.82,-33.16 30.96,-59.16 -1.58,-22.02 -16.49,-52.1 -39.65,-46.8z"/>
   <path class="fil0" d="M287.96 78.81c-49.5,13.2 -36.81,112.16 9.99,99.8 50.59,-13.36 32.79,-111.21 -9.99,-99.8z"/>
   <path class="fil0" d="M473.75 210.28c3.89,-24.68 -4.08,-54.79 -21.3,-62.1 -15.06,-6.4 -41.6,5.31 -45.85,35.21 -10.44,73.42 56.75,92.81 67.15,26.89z"/>
   <path class="fil0" d="M196.14 203.12c9.73,61.92 76.86,52.73 68.66,-12.15 -8.24,-65.19 -79.01,-53.74 -68.66,12.15z"/>
   <path class="fil0" d="M333.1 308.56c17.51,-15.24 41.49,-28.73 44.16,-41.27 2.95,-13.92 -4.45,-24.26 -13.75,-28.25 -16.66,-7.14 -21.34,1.08 -30.4,8.14 -9.3,-3.22 -13.3,-16.16 -30.89,-8.78 -17.78,7.47 -26.17,28.78 5.69,50.81l25.2 19.35z"/>
   <path class="fil0" d="M53.41 206.27c-0.41,-11.85 -28.15,-24.96 -41.17,-66.92 -8.53,-27.47 -7.9,-52.88 19.08,-66.33 7.82,-3.9 5.29,-0.44 7.18,-8.42 -33.92,-0.2 -58.98,54.14 -14.85,113.45 5.75,7.72 19.44,29.23 29.77,28.22z"/>
   <path class="fil0" d="M116.07 56.43c11.34,6.83 42.37,-3.37 47.37,50.01 1.57,16.8 -0.49,29.65 -3.91,44.61 -1.86,8.13 -12.75,31.66 -8.9,37.14 11.68,-5.38 20.35,-58.01 20.3,-74.52 -0.09,-29.01 -11.07,-62.47 -43.57,-62.8 -6.68,-0.07 -11.14,-0.28 -11.29,5.56z"/>
   <path class="fil0" d="M45 67.17c6.56,5.08 11.93,5.39 18.38,0 -0.44,-12.86 -15.89,-11.08 -18.38,0z"/>
   <path class="fil0" d="M97.45 52.97c-13.41,6.37 -2.19,14.61 7.29,9.63 7.87,-4.13 4.78,-15.37 -7.29,-9.63z"/>
  </g>
 </g>
</svg>
